<?xml version="1.0" encoding="UTF-8"?>
<svg id="Layer_1" data-name="Layer 1" xmlns="http://www.w3.org/2000/svg" viewBox="0 0 500 500">
  <defs>
    <style>
      .cls-1 {
        fill: #0bb3a4;
      }
    </style>
  </defs>
  <path class="cls-1" d="M337.9,291.23c3.7,4.46,5.73,10.08,5.73,15.88h0c0,5.09-.45,10.07-1.3,14.91-1.32,7.47-3.61,14.6-6.74,21.26-13.6,29.02-43.08,49.12-77.25,49.12h-16.67c-47.11,0-85.29-38.19-85.29-85.29v-69.5l18.64,22.48c10.58,12.76,16.37,28.81,16.37,45.38v1.64c0,27.72,22.55,50.29,50.29,50.29h16.67c5.92,0,11.61-1.03,16.89-2.93,5.86-2.09,11.22-5.24,15.85-9.22,4.37-3.76,8.08-8.25,10.96-13.27,3.64-6.38,5.92-13.63,6.45-21.36l-44.9-54.16c-12.59-15.19-19.49-34.3-19.49-54.03v-24.35l93.8,113.16Z"/>
  <path class="cls-1" d="M343.63,192.89v67.86l-18.64-22.48c-10.58-12.76-16.37-28.81-16.37-45.38h0c0-27.77-22.51-50.29-50.29-50.29h-16.67c-6.22,0-12.19,1.14-17.69,3.22-5.22,1.96-10.02,4.77-14.25,8.26-4.93,4.06-9.08,9.06-12.18,14.71-3.58,6.51-5.75,13.91-6.1,21.77l33.18,40.02c12.59,15.19,19.49,34.3,19.49,54.03v24.31l-52.73-63.59-29.28-35.31c-3.7-4.46-5.73-10.08-5.73-15.88v-1.26c0-5.55.53-10.98,1.55-16.24,1.28-6.69,3.35-13.1,6.11-19.13,2.74-6.02,6.17-11.67,10.19-16.84,3.87-4.99,8.28-9.54,13.14-13.55,4.19-3.47,8.71-6.53,13.51-9.15,5.72-3.13,11.84-5.61,18.27-7.36,7.17-1.96,14.72-3.01,22.51-3.01h16.67c47.11,0,85.29,38.19,85.29,85.29Z"/>
</svg>