<?xml version="1.0" encoding="UTF-8"?>
<svg id="Layer_1" data-name="Layer 1" xmlns="http://www.w3.org/2000/svg" viewBox="0 0 670 500">
  <defs>
    <style>
      .cls-1 {
        fill: #fff;
      }
    </style>
  </defs>
  
  <g>
    <g>
      <g>
        <path class="cls-1" d="M136.02,323.5c-.19-.18-.52-.43-1.01-.73-.49-.3-1.09-.61-1.79-.93-.7-.32-1.46-.58-2.28-.79-.82-.21-1.65-.32-2.5-.32-1.48,0-2.6.27-3.36.81s-1.13,1.32-1.13,2.35c0,.76.24,1.37.72,1.82.48.45,1.19.83,2.14,1.15s2.14.66,3.57,1.03c1.85.45,3.46,1,4.82,1.64,1.36.64,2.41,1.49,3.14,2.53.73,1.04,1.09,2.43,1.09,4.17,0,1.47-.28,2.74-.83,3.79-.56,1.05-1.32,1.92-2.28,2.59-.97.67-2.08,1.16-3.34,1.46-1.26.3-2.59.45-3.99.45s-2.81-.14-4.21-.44c-1.4-.29-2.75-.71-4.03-1.25-1.28-.54-2.48-1.2-3.59-1.97l2.42-4.72c.24.24.66.55,1.27.93.61.39,1.35.77,2.22,1.15s1.83.71,2.86.97c1.03.27,2.08.4,3.14.4,1.51,0,2.63-.24,3.38-.73.74-.48,1.11-1.2,1.11-2.14,0-.84-.3-1.51-.89-2-.6-.49-1.44-.91-2.52-1.27-1.09-.35-2.37-.73-3.85-1.13-1.8-.5-3.29-1.07-4.47-1.7-1.18-.63-2.06-1.42-2.66-2.35-.6-.94-.89-2.12-.89-3.54,0-1.92.46-3.54,1.39-4.84.93-1.3,2.17-2.29,3.73-2.97,1.56-.67,3.3-1.01,5.2-1.01,1.32,0,2.57.14,3.75.43,1.18.29,2.28.68,3.32,1.15,1.03.48,1.96.99,2.78,1.55l-2.42,4.45Z"/>
        <path class="cls-1" d="M143.57,344.3v-28.19h5.48v28.19h-5.48Z"/>
        <path class="cls-1" d="M160.4,326.2v18.1h-5.48v-28.19h4.41l14.53,18.58v-18.54h5.44v28.15h-4.53l-14.37-18.1Z"/>
        <path class="cls-1" d="M183.51,329.97c0-1.75.31-3.45.93-5.1.62-1.66,1.53-3.16,2.74-4.51,1.2-1.35,2.67-2.43,4.39-3.24,1.72-.81,3.67-1.21,5.84-1.21,2.59,0,4.84.57,6.73,1.71,1.89,1.14,3.29,2.62,4.19,4.45l-4.17,2.9c-.48-1.06-1.1-1.89-1.87-2.5-.77-.61-1.6-1.05-2.48-1.31-.89-.26-1.74-.4-2.56-.4-1.38,0-2.57.28-3.59.83-1.02.56-1.87,1.29-2.54,2.18-.67.9-1.18,1.91-1.53,3.02s-.52,2.24-.52,3.38c0,1.22.2,2.4.6,3.55.4,1.15.96,2.17,1.69,3.06.73.89,1.6,1.59,2.62,2.1,1.02.51,2.14.77,3.36.77.85,0,1.72-.14,2.62-.44.9-.29,1.73-.76,2.5-1.39.77-.64,1.39-1.47,1.87-2.5l4.45,2.62c-.58,1.4-1.5,2.59-2.76,3.57-1.26.98-2.66,1.72-4.21,2.22-1.55.5-3.09.75-4.63.75-2.01,0-3.85-.42-5.5-1.25-1.65-.84-3.09-1.95-4.31-3.34-1.22-1.39-2.16-2.95-2.84-4.68s-1.01-3.49-1.01-5.26Z"/>
        <path class="cls-1" d="M232.03,339.5v4.8h-19.57v-28.19h19.22v4.8h-13.74v6.79h11.83v4.45h-11.83v7.35h14.1Z"/>
        <path class="cls-1" d="M236.32,344.3v-28.19h12.51c1.27,0,2.45.26,3.55.79s2.05,1.24,2.86,2.14c.81.9,1.43,1.91,1.87,3.02.44,1.11.66,2.25.66,3.41s-.21,2.33-.62,3.41c-.41,1.09-1,2.05-1.77,2.88-.77.83-1.67,1.47-2.7,1.92l6.43,10.6h-6.03l-5.8-9.45h-5.48v9.45h-5.48ZM241.79,330.05h6.87c.69,0,1.3-.2,1.83-.62.53-.41.95-.96,1.27-1.65s.48-1.46.48-2.3-.19-1.65-.56-2.34c-.37-.69-.83-1.23-1.39-1.63-.56-.4-1.17-.6-1.83-.6h-6.67v9.13Z"/>
        <path class="cls-1" d="M274.59,344.5c-2.06,0-3.93-.4-5.6-1.19-1.67-.79-3.11-1.87-4.33-3.24-1.22-1.36-2.16-2.9-2.82-4.6-.66-1.71-.99-3.46-.99-5.26s.35-3.67,1.05-5.38c.7-1.71,1.67-3.23,2.9-4.57,1.23-1.34,2.69-2.4,4.39-3.18,1.69-.78,3.53-1.17,5.52-1.17s3.9.41,5.58,1.23c1.68.82,3.12,1.92,4.31,3.3,1.19,1.38,2.11,2.91,2.76,4.6.65,1.7.97,3.44.97,5.24s-.34,3.63-1.01,5.34-1.63,3.23-2.86,4.57c-1.23,1.34-2.69,2.39-4.37,3.16-1.68.77-3.51,1.15-5.5,1.15ZM266.41,330.21c0,1.22.19,2.4.56,3.53.37,1.14.91,2.15,1.61,3.04.7.89,1.56,1.59,2.58,2.1,1.02.51,2.18.77,3.47.77s2.53-.27,3.53-.81c1.01-.54,1.86-1.26,2.56-2.16.7-.9,1.22-1.92,1.57-3.06.34-1.14.52-2.28.52-3.42,0-1.22-.19-2.39-.56-3.51-.37-1.13-.91-2.13-1.63-3.02-.72-.89-1.58-1.59-2.58-2.1-1.01-.52-2.16-.77-3.45-.77s-2.46.27-3.47.81c-1.02.54-1.88,1.26-2.58,2.14-.7.89-1.23,1.89-1.59,3.02-.36,1.13-.54,2.27-.54,3.43Z"/>
        <path class="cls-1" d="M300.4,329.97c0-1.75.31-3.45.93-5.1.62-1.66,1.53-3.16,2.74-4.51,1.2-1.35,2.67-2.43,4.39-3.24,1.72-.81,3.67-1.21,5.84-1.21,2.59,0,4.84.57,6.73,1.71,1.89,1.14,3.29,2.62,4.19,4.45l-4.17,2.9c-.48-1.06-1.1-1.89-1.87-2.5-.77-.61-1.6-1.05-2.48-1.31-.89-.26-1.74-.4-2.56-.4-1.38,0-2.57.28-3.59.83-1.02.56-1.87,1.29-2.54,2.18-.67.9-1.18,1.91-1.53,3.02-.34,1.11-.52,2.24-.52,3.38,0,1.22.2,2.4.6,3.55.4,1.15.96,2.17,1.69,3.06.73.89,1.6,1.59,2.62,2.1,1.02.51,2.14.77,3.36.77.85,0,1.72-.14,2.62-.44.9-.29,1.73-.76,2.5-1.39.77-.64,1.39-1.47,1.87-2.5l4.45,2.62c-.58,1.4-1.5,2.59-2.76,3.57-1.26.98-2.66,1.72-4.21,2.22-1.55.5-3.09.75-4.63.75-2.01,0-3.85-.42-5.5-1.25-1.65-.84-3.09-1.95-4.31-3.34-1.22-1.39-2.16-2.95-2.84-4.68s-1.01-3.49-1.01-5.26Z"/>
        <path class="cls-1" d="M341.02,344.5c-2.06,0-3.93-.4-5.6-1.19-1.67-.79-3.11-1.87-4.33-3.24-1.22-1.36-2.16-2.9-2.82-4.6-.66-1.71-.99-3.46-.99-5.26s.35-3.67,1.05-5.38c.7-1.71,1.67-3.23,2.9-4.57,1.23-1.34,2.69-2.4,4.39-3.18,1.69-.78,3.53-1.17,5.52-1.17s3.9.41,5.58,1.23c1.68.82,3.12,1.92,4.31,3.3,1.19,1.38,2.11,2.91,2.76,4.6.65,1.7.97,3.44.97,5.24s-.34,3.63-1.01,5.34c-.68,1.71-1.63,3.23-2.86,4.57-1.23,1.34-2.69,2.39-4.37,3.16-1.68.77-3.51,1.15-5.5,1.15ZM332.84,330.21c0,1.22.19,2.4.56,3.53.37,1.14.91,2.15,1.61,3.04.7.89,1.56,1.59,2.58,2.1,1.02.51,2.18.77,3.47.77s2.53-.27,3.53-.81c1.01-.54,1.86-1.26,2.56-2.16.7-.9,1.22-1.92,1.57-3.06.34-1.14.52-2.28.52-3.42,0-1.22-.19-2.39-.56-3.51-.37-1.13-.91-2.13-1.63-3.02-.72-.89-1.58-1.59-2.58-2.1-1.01-.52-2.16-.77-3.45-.77s-2.46.27-3.47.81c-1.02.54-1.88,1.26-2.58,2.14-.7.89-1.23,1.89-1.59,3.02-.36,1.13-.54,2.27-.54,3.43Z"/>
        <path class="cls-1" d="M364.48,326.2v18.1h-5.48v-28.19h4.41l14.53,18.58v-18.54h5.44v28.15h-4.53l-14.37-18.1Z"/>
        <path class="cls-1" d="M406.09,323.5c-.19-.18-.52-.43-1.01-.73-.49-.3-1.09-.61-1.79-.93-.7-.32-1.46-.58-2.28-.79-.82-.21-1.65-.32-2.5-.32-1.48,0-2.6.27-3.36.81s-1.13,1.32-1.13,2.35c0,.76.24,1.37.72,1.82.48.45,1.19.83,2.14,1.15s2.14.66,3.57,1.03c1.85.45,3.46,1,4.82,1.64,1.36.64,2.41,1.49,3.14,2.53.73,1.04,1.09,2.43,1.09,4.17,0,1.47-.28,2.74-.83,3.79-.56,1.05-1.32,1.92-2.28,2.59-.97.67-2.08,1.16-3.34,1.46-1.26.3-2.59.45-3.99.45s-2.81-.14-4.21-.44c-1.4-.29-2.75-.71-4.03-1.25-1.28-.54-2.48-1.2-3.59-1.97l2.42-4.72c.24.24.66.55,1.27.93.61.39,1.35.77,2.22,1.15s1.83.71,2.86.97c1.03.27,2.08.4,3.14.4,1.51,0,2.63-.24,3.38-.73.74-.48,1.11-1.2,1.11-2.14,0-.84-.3-1.51-.89-2-.6-.49-1.44-.91-2.52-1.27-1.09-.35-2.37-.73-3.85-1.13-1.8-.5-3.29-1.07-4.47-1.7-1.18-.63-2.06-1.42-2.66-2.35-.6-.94-.89-2.12-.89-3.54,0-1.92.46-3.54,1.39-4.84.93-1.3,2.17-2.29,3.73-2.97,1.56-.67,3.3-1.01,5.2-1.01,1.32,0,2.57.14,3.75.43,1.18.29,2.28.68,3.32,1.15,1.03.48,1.96.99,2.78,1.55l-2.42,4.45Z"/>
        <path class="cls-1" d="M425.55,344.5c-2.22,0-4.12-.38-5.7-1.13-1.57-.75-2.85-1.79-3.81-3.12-.97-1.32-1.67-2.82-2.12-4.51-.45-1.68-.67-3.43-.67-5.26v-14.37h5.44v14.37c0,1.17.13,2.3.38,3.4.25,1.1.64,2.08,1.15,2.96s1.21,1.56,2.08,2.06c.87.5,1.96.76,3.26.76s2.45-.26,3.32-.77c.86-.52,1.55-1.21,2.08-2.08.53-.87.91-1.86,1.15-2.96s.36-2.22.36-3.36v-14.37h5.44v14.37c0,1.91-.24,3.71-.71,5.42-.48,1.71-1.2,3.2-2.18,4.49s-2.25,2.29-3.81,3.02c-1.56.73-3.44,1.09-5.64,1.09Z"/>
        <path class="cls-1" d="M443.41,344.3v-28.19h5.48v23.38h14.37v4.8h-19.85Z"/>
        <path class="cls-1" d="M483.55,320.92h-8.97v23.39h-5.44v-23.39h-9.05v-4.8h23.47v4.8Z"/>
        <path class="cls-1" d="M487.09,344.3v-28.19h5.48v28.19h-5.48Z"/>
        <path class="cls-1" d="M503.92,326.2v18.1h-5.48v-28.19h4.41l14.53,18.58v-18.54h5.44v28.15h-4.53l-14.37-18.1Z"/>
        <path class="cls-1" d="M540.45,344.5c-1.85,0-3.59-.36-5.2-1.09-1.62-.73-3.04-1.75-4.27-3.08-1.23-1.32-2.19-2.85-2.88-4.59-.69-1.73-1.03-3.63-1.03-5.7,0-1.93.35-3.75,1.05-5.46.7-1.71,1.67-3.22,2.9-4.53,1.23-1.31,2.68-2.33,4.35-3.06,1.67-.73,3.47-1.09,5.4-1.09,2.67,0,4.96.56,6.85,1.67s3.32,2.61,4.27,4.49l-4.09,3.02c-.69-1.4-1.68-2.47-2.98-3.22-1.3-.74-2.7-1.11-4.21-1.11-1.19,0-2.28.25-3.28.76-.99.5-1.85,1.19-2.56,2.06-.71.87-1.26,1.88-1.63,3.02-.37,1.14-.56,2.34-.56,3.61,0,1.35.21,2.6.62,3.73.41,1.14.99,2.14,1.75,3,.75.86,1.63,1.53,2.64,2,1.01.48,2.12.72,3.34.72,1.46,0,2.83-.37,4.13-1.11,1.3-.74,2.51-1.83,3.65-3.26v5.44c-2.36,2.51-5.11,3.77-8.26,3.77ZM548.31,333.82h-5.68v-4.01h10.2v14.49h-4.53v-10.48Z"/>
      </g>
      <g>
        <path class="cls-1" d="M122.08,359.38h1.83l4.76,12.25h-2.04l-1.2-3.33h-4.9l-1.2,3.33h-2.04l4.78-12.25ZM124.92,366.87l-1.93-5.36-1.94,5.36h3.87Z"/>
        <path class="cls-1" d="M137.09,371.63v-12.25h1.95v12.25h-1.95Z"/>
        <path class="cls-1" d="M159.84,371.63v-12.25h1.95v12.25h-1.95Z"/>
        <path class="cls-1" d="M173.38,362.97v8.66h-1.95v-12.25h1.59l6.93,8.85v-8.83h1.93v12.23h-1.67l-6.83-8.66Z"/>
        <path class="cls-1" d="M198.8,362.26c-.1-.13-.27-.26-.49-.41s-.48-.28-.78-.4c-.29-.12-.62-.23-.97-.31s-.71-.13-1.08-.13c-.8,0-1.4.15-1.79.45s-.59.71-.59,1.24c0,.39.11.7.33.93.22.23.55.42,1.01.56.45.14,1.01.29,1.68.45.84.19,1.56.43,2.16.7.6.27,1.07.64,1.4,1.08.33.45.49,1.04.49,1.79,0,.61-.12,1.13-.35,1.58s-.56.81-.97,1.09-.89.49-1.43.63c-.54.14-1.12.2-1.74.2s-1.22-.06-1.82-.2c-.6-.13-1.18-.32-1.73-.57s-1.06-.55-1.53-.91l.9-1.66c.14.15.35.31.64.49.29.18.62.35.99.51.37.16.78.3,1.22.4s.89.16,1.35.16c.77,0,1.36-.13,1.77-.4.41-.27.61-.66.61-1.17,0-.4-.14-.72-.41-.97-.27-.25-.66-.45-1.16-.63-.5-.17-1.1-.34-1.8-.51-.8-.21-1.48-.44-2.02-.71s-.94-.6-1.21-1c-.27-.4-.4-.92-.4-1.56,0-.8.19-1.48.58-2.04s.92-.97,1.6-1.25c.68-.28,1.43-.42,2.26-.42.55,0,1.08.06,1.58.18.5.12.97.28,1.4.49.43.21.81.44,1.15.71l-.86,1.59Z"/>
        <path class="cls-1" d="M209,371.63v-12.25h1.95v12.25h-1.95Z"/>
        <path class="cls-1" d="M225.59,371.71c-.8,0-1.56-.17-2.26-.5-.7-.33-1.31-.79-1.84-1.37-.52-.58-.93-1.25-1.23-2-.29-.75-.44-1.55-.44-2.39s.15-1.63.44-2.36c.29-.74.7-1.39,1.23-1.96.52-.57,1.14-1.02,1.85-1.34s1.47-.49,2.3-.49c1.17,0,2.16.24,2.96.73.8.49,1.4,1.14,1.8,1.94l-1.48,1.07c-.33-.67-.79-1.17-1.38-1.5s-1.23-.5-1.93-.5c-.59,0-1.11.12-1.58.36-.47.24-.86.57-1.2.99s-.59.9-.77,1.43-.27,1.09-.27,1.68c0,.62.1,1.2.29,1.74.2.54.47,1.01.83,1.42.36.41.78.73,1.26.96.48.23,1,.35,1.55.35.68,0,1.32-.17,1.92-.51s1.17-.85,1.7-1.53v1.97c-1.07,1.21-2.32,1.81-3.76,1.81ZM229.15,366.87h-2.55v-1.45h4.19v6.21h-1.64v-4.76Z"/>
        <path class="cls-1" d="M249.95,359.38v12.25h-1.93v-5.4h-6.18v5.4h-1.95v-12.25h1.95v5.12h6.18v-5.12h1.93Z"/>
        <path class="cls-1" d="M268.6,361.09h-4.07v10.54h-1.95v-10.54h-4.09v-1.71h10.11v1.71Z"/>
        <path class="cls-1" d="M275.69,371.63v-2.21h1.57v2.21h-1.57Z"/>
        <path class="cls-1" d="M307.81,359.38v12.25h-1.93v-5.4h-6.18v5.4h-1.95v-12.25h1.95v5.12h6.18v-5.12h1.93Z"/>
        <path class="cls-1" d="M322.57,371.71c-.98,0-1.8-.17-2.48-.5-.67-.33-1.21-.79-1.62-1.36-.41-.58-.71-1.23-.9-1.97s-.29-1.5-.29-2.29v-6.21h1.95v6.21c0,.56.05,1.11.16,1.63.11.52.29.99.54,1.41.25.41.59.74,1.02.98.43.24.95.36,1.59.36s1.2-.12,1.62-.36c.43-.24.77-.57,1.03-1,.26-.43.44-.9.55-1.42.11-.52.16-1.05.16-1.6v-6.21h1.95v6.21c0,.84-.1,1.63-.3,2.37-.2.74-.51,1.4-.93,1.96-.42.56-.97,1-1.64,1.32-.67.32-1.48.47-2.42.47Z"/>
        <path class="cls-1" d="M347.64,371.63v-8.73l-3.6,6.62h-1.14l-3.6-6.62v8.73h-1.95v-12.25h2.07l4.05,7.47,4.05-7.47h2.07v12.25h-1.95Z"/>
        <path class="cls-1" d="M362.78,359.38h1.83l4.76,12.25h-2.04l-1.2-3.33h-4.9l-1.2,3.33h-2.04l4.78-12.25ZM365.62,366.87l-1.93-5.36-1.94,5.36h3.87Z"/>
        <path class="cls-1" d="M379.74,362.97v8.66h-1.95v-12.25h1.59l6.93,8.85v-8.83h1.93v12.23h-1.67l-6.83-8.66Z"/>
        <path class="cls-1" d="M407.87,369.37c.18.14.47.27.85.4.38.13.83.2,1.34.2s.92-.08,1.23-.25c.32-.16.56-.42.73-.75s.29-.76.35-1.29.1-1.14.1-1.86v-6.44h1.93v6.18c0,.9-.05,1.73-.15,2.48-.1.75-.29,1.41-.58,1.96-.29.55-.72.98-1.29,1.27-.57.3-1.33.44-2.29.44-.56,0-1.06-.06-1.5-.19s-.84-.32-1.21-.57l.47-1.59Z"/>
        <path class="cls-1" d="M429.04,371.71c-.98,0-1.8-.17-2.48-.5-.67-.33-1.21-.79-1.62-1.36-.41-.58-.71-1.23-.9-1.97s-.29-1.5-.29-2.29v-6.21h1.95v6.21c0,.56.05,1.11.16,1.63.11.52.29.99.54,1.41.25.41.59.74,1.02.98.43.24.95.36,1.59.36s1.2-.12,1.62-.36c.43-.24.77-.57,1.03-1,.26-.43.44-.9.55-1.42.11-.52.16-1.05.16-1.6v-6.21h1.95v6.21c0,.84-.1,1.63-.3,2.37-.2.74-.51,1.4-.93,1.96-.42.56-.97,1-1.64,1.32-.67.32-1.48.47-2.42.47Z"/>
        <path class="cls-1" d="M443.8,371.63v-12.25h4.35c1.32,0,2.42.27,3.3.82.88.55,1.54,1.28,1.99,2.21.45.93.67,1.95.67,3.08,0,1.24-.24,2.32-.73,3.24-.49.92-1.18,1.63-2.08,2.14-.9.51-1.95.76-3.16.76h-4.35ZM452.15,365.49c0-.86-.16-1.62-.47-2.28-.32-.66-.77-1.17-1.36-1.55s-1.31-.57-2.16-.57h-2.4v8.83h2.4c.86,0,1.59-.2,2.18-.59.59-.39,1.04-.92,1.35-1.59.31-.67.47-1.42.47-2.26Z"/>
        <path class="cls-1" d="M468.05,371.71c-.8,0-1.56-.17-2.26-.5-.7-.33-1.31-.79-1.84-1.37-.52-.58-.93-1.25-1.23-2-.29-.75-.44-1.55-.44-2.39s.15-1.63.44-2.36c.29-.74.7-1.39,1.23-1.96.52-.57,1.14-1.02,1.85-1.34s1.47-.49,2.3-.49c1.17,0,2.16.24,2.96.73.8.49,1.4,1.14,1.8,1.94l-1.48,1.07c-.33-.67-.79-1.17-1.38-1.5s-1.23-.5-1.93-.5c-.59,0-1.11.12-1.58.36-.47.24-.86.57-1.2.99s-.59.9-.77,1.43-.27,1.09-.27,1.68c0,.62.1,1.2.29,1.74.2.54.47,1.01.83,1.42.36.41.78.73,1.26.96.48.23,1,.35,1.55.35.68,0,1.32-.17,1.92-.51s1.17-.85,1.7-1.53v1.97c-1.07,1.21-2.32,1.81-3.76,1.81ZM471.61,366.87h-2.55v-1.45h4.19v6.21h-1.64v-4.76Z"/>
        <path class="cls-1" d="M492.65,371.63v-8.73l-3.6,6.62h-1.14l-3.6-6.62v8.73h-1.95v-12.25h2.07l4.05,7.47,4.05-7.47h2.07v12.25h-1.95Z"/>
        <path class="cls-1" d="M512.66,369.92v1.71h-8.4v-12.25h8.25v1.71h-6.3v3.5h5.47v1.59h-5.47v3.74h6.45Z"/>
        <path class="cls-1" d="M523.51,362.97v8.66h-1.95v-12.25h1.59l6.93,8.85v-8.83h1.93v12.23h-1.67l-6.83-8.66Z"/>
        <path class="cls-1" d="M550.68,361.09h-4.07v10.54h-1.95v-10.54h-4.09v-1.71h10.11v1.71Z"/>
        <path class="cls-1" d="M550.87,371.63v-2.21h1.57v2.21h-1.57Z"/>
      </g>
    </g>
    <g>
      <path class="cls-1" d="M386.83,233.57c2.12,2.56,3.28,5.78,3.28,9.1h0c0,2.92-.26,5.77-.75,8.55-.76,4.28-2.07,8.37-3.86,12.19-7.8,16.64-24.7,28.16-44.29,28.16h-9.56c-27.01,0-48.9-21.89-48.9-48.9v-39.85l10.69,12.89c6.07,7.31,9.38,16.52,9.38,26.02v.94c0,15.89,12.93,28.83,28.83,28.83h9.56c3.39,0,6.66-.59,9.68-1.68,3.36-1.2,6.43-3,9.09-5.29,2.51-2.16,4.63-4.73,6.28-7.61,2.09-3.66,3.39-7.82,3.7-12.25l-25.74-31.05c-7.22-8.71-11.17-19.67-11.17-30.98v-13.96l53.78,64.88Z"/>
      <path class="cls-1" d="M390.11,177.19v38.91l-10.69-12.89c-6.07-7.31-9.38-16.52-9.38-26.02h0c0-15.92-12.91-28.83-28.83-28.83h-9.56c-3.57,0-6.99.65-10.14,1.85-2.99,1.12-5.75,2.74-8.17,4.74-2.83,2.33-5.21,5.2-6.98,8.43-2.05,3.73-3.3,7.98-3.5,12.48l19.02,22.94c7.22,8.71,11.17,19.67,11.17,30.98v13.94l-30.23-36.46-16.79-20.24c-2.12-2.56-3.28-5.78-3.28-9.11v-.72c0-3.18.3-6.3.89-9.31.73-3.84,1.92-7.51,3.5-10.97,1.57-3.45,3.54-6.69,5.84-9.66,2.22-2.86,4.75-5.47,7.53-7.77,2.4-1.99,4.99-3.74,7.75-5.25,3.28-1.79,6.79-3.22,10.48-4.22,4.11-1.12,8.44-1.73,12.91-1.73h9.56c27.01,0,48.9,21.89,48.9,48.9Z"/>
    </g>
  </g>
</svg>